<svg viewBox="0 0 20.126953125 34.851318359375" fill="none" xmlns="http://www.w3.org/2000/svg"><path d="M0.4472184136284722 0.40936731770833334C0.16051096028645834 0.6769986436631944 0 1.0362697265625 0 1.4103825737847224C0 1.7844954210069444 0.16051096028645834 2.1437689887152778 0.4472184136284722 2.4113978298611114L16.465214301215276 17.393663194444446L0.4472184136284722 32.37283745659722C0.16051096028645834 32.64045138888889 0 32.99975477430556 0 33.373967013888894C0 33.74793077256945 0.16051096028645834 34.10723415798611 0.4472184136284722 34.37484809027778C0.586578927951389 34.50554904513889 0.7532002821180556 34.60916558159722 0.9372476019965279 34.679982638888895C1.1212974066840278 34.75079969618056 1.3190409939236112 34.78732638888889 1.5188097005208334 34.78732638888889C1.7185784071180557 34.78732638888889 1.9163244791666667 34.75079969618056 2.100371799045139 34.679982638888895C2.284419118923611 34.60916558159722 2.451040473090278 34.50554904513889 2.5904134114583335 34.37484809027778L19.62410232204861 18.439618706597223C19.92327332899306 18.159779513888893 20.090699761284725 17.784449110243056 20.090699761284725 17.393663194444446C20.090699761284725 17.002877278645833 19.92327332899306 16.627522026909723 19.62410232204861 16.34768283420139L2.5904134114583335 0.41236399739583335C2.451040473090278 0.2818618272569444 2.284419118923611 0.1781381955295139 2.100371799045139 0.1073136838107639C1.9163244791666667 0.03648917209201389 1.7185784071180557 0 1.5188097005208334 0C1.3190409939236112 0 1.1212974066840278 0.03648917209201389 0.9372476019965279 0.1073136838107639C0.7532002821180556 0.1781381955295139 0.586578927951389 0.2818618272569444 0.4472184136284722 0.41236399739583335V0.40936731770833334Z" fill="black"></path></svg>