<?xml version="1.0" encoding="UTF-8"?><svg version="1.1" width="150px" height="38px" viewBox="0 0 150.0 38.0" xmlns="http://www.w3.org/2000/svg" xmlns:xlink="http://www.w3.org/1999/xlink"><defs><clipPath id="i0"><path d="M31.364766,-7.10542736e-15 C34.6695881,-7.10542736e-15 37.3450547,2.70051383 37.3450547,6.03391098 L37.3451589,25.5637299 C37.3175399,25.5609449 37.2404151,25.5519218 37.0825157,25.5222907 L36.9179228,25.4896868 C36.2086429,25.3426876 34.4790051,24.9097087 30.747509,23.6495577 C29.2531424,23.1447327 27.2479535,22.3728549 25.0145175,21.5579383 C26.3557786,19.2063217 27.4271646,16.5283856 28.1313091,13.617969 L20.7698954,13.617969 L20.7698954,10.9439135 L29.7876007,10.9439135 L29.7876007,9.45131076 L20.7698954,9.45131076 L20.7698954,4.99361086 L17.0897177,4.99361086 C16.4871732,4.99361086 16.4470036,5.5535272 16.4443256,5.62818271 L16.4441343,9.45131076 L7.32377065,9.45131076 L7.32377065,10.9439135 L16.4441343,10.9439135 L16.4441343,13.617969 L8.91409283,13.617969 L8.91409283,15.110219 L23.518387,15.110219 C22.9839286,16.9672412 22.2663787,18.7106689 21.4147731,20.2946411 C16.6759093,18.7177244 11.6191928,17.4396106 8.44242896,18.226305 C6.41078178,18.73113 5.10232903,19.6321244 4.33362627,20.5761577 C0.805495791,24.9054465 3.33597074,31.4812242 10.78699,31.4812242 C15.1924788,31.4812242 19.4363954,29.0040187 22.7256953,24.9216743 C24.1055304,25.5906071 25.8656307,26.394434 27.6829499,27.2043634 L28.5948821,27.6092404 L28.7471679,27.6765676 L29.5073773,28.011557 C33.5508686,29.7886405 37.3451589,31.3838575 37.3451589,31.3838575 L37.3450547,31.6311132 C37.3450547,34.9623937 34.6695881,37.6639658 31.364766,37.6639658 L5.98240542,37.6639658 C2.67687772,37.6639658 1.97540559e-15,34.9623937 1.56744139e-15,31.6311132 L-1.56731178e-15,6.03391098 C-1.9755352e-15,2.70051383 2.67687772,0 5.98240542,0 L31.364766,-7.10542736e-15 Z M19.4931926,23.2996021 C16.843126,26.7861048 13.4677483,28.963802 10.0909595,28.963802 C4.28106238,28.963802 2.56338742,24.3484104 5.43464569,21.8232272 C6.39279011,20.9698577 8.14362618,20.5532272 9.07707616,20.4597411 C12.5283011,20.1157828 15.7230566,21.4436383 19.4931926,23.2996021 Z"></path></clipPath><clipPath id="i1"><path d="M3.40994992,0 C5.39608877,0 6.81989985,1.31162775 6.81989985,3.26001937 C6.81989985,5.17101655 5.39608877,6.52039152 3.40994992,6.52039152 C1.42381108,6.52039152 0,5.17101655 0,3.26001937 C0,1.31162775 1.42381108,0 3.40994992,0 Z"></path></clipPath><clipPath id="i2"><path d="M5.920669,0 L5.920669,27.355123 L0,27.355123 L0,0 L5.920669,0 Z"></path></clipPath><clipPath id="i3"><path d="M5.47123043,0 L6.97018318,5.17136933 L16.3759441,5.17136933 L17.7994024,0 L24.8073328,0 L16.8257357,26.4184689 L8.88118036,26.4184689 L0,0 L5.47123043,0 Z M15.2142469,9.48090257 L8.20666926,9.48090257 L11.7288025,21.6594967 L11.8790858,21.6594967 L15.2142469,9.48090257 Z"></path></clipPath><clipPath id="i4"><path d="M5.920669,0 L5.920669,20.085396 L0,20.085396 L0,0 L5.920669,0 Z"></path></clipPath><clipPath id="i5"><path d="M9.85590534,0 L19.9361773,26.4184689 L19.973219,26.4558633 L14.3898052,26.4558633 L10.867672,14.2398747 L10.680347,14.2398747 L6.63328041,26.4558633 L0,26.4558633 L7.9823026,6.29531931 L4.64714156,0.149930552 L4.64714156,0 L9.85590534,0 Z"></path></clipPath><clipPath id="i6"><path d="M5.92137487,0 L5.92137487,6.55778597 C7.04532484,6.25792486 8.09448593,6.10799431 9.36871924,6.10799431 C14.6522719,6.10799431 19.4115968,10.0051303 19.4115968,16.9375663 C19.4115968,23.1580967 15.9635469,26.8679077 11.6921136,26.8679077 C9.51864979,26.8679077 7.83237205,26.0434661 5.92137487,24.4697245 L5.92137487,26.4558633 L0,26.4558633 L0,0 L5.92137487,0 Z M7.94455538,9.81780534 C7.27039706,9.81780534 6.63292763,9.89259423 5.92137487,10.1176664 L5.92137487,20.9846329 C7.15786095,21.846469 8.1696276,22.2588662 9.44350813,22.2588662 C11.6547192,22.2588662 13.4157858,20.4974468 13.4157858,16.7502413 C13.4157858,11.9538747 10.8302775,9.81780534 7.94455538,9.81780534 Z"></path></clipPath><clipPath id="i7"><path d="M5.80848598,0 C7.90680816,0 9.59273312,0.787047205 11.8790858,2.51107217 L12.2911303,0.412397213 L18.2117996,0.412397213 L17.4995413,5.43383599 L17.4995413,13.8274775 C17.4995413,18.3994774 14.8018497,20.909844 10.0428776,20.909844 C7.00722485,20.909844 4.90890267,20.3856162 1.08655553,19.223919 L2.13536384,14.6145247 C5.62045543,16.1886191 7.1571554,16.8631302 8.76864425,16.8631302 C10.7173887,16.8631302 11.578872,15.4767135 11.578872,13.3406442 L11.578872,13.1907136 C4.79601378,11.9164803 2.69769161,11.2045748 1.38606386,9.892947 C0.412044435,8.9185748 0,7.53215817 0,5.92102209 C0,2.06128051 2.99790549,0 5.80848598,0 Z M8.05673871,4.0848138 C6.63257485,4.0848138 5.73334432,5.02143878 5.73334432,6.52039152 C5.73334432,7.08271929 5.84552765,7.64469428 6.29496653,8.09413315 C7.00722485,8.80639147 8.39399426,9.33097202 11.578872,10.080272 L11.578872,5.28390544 C10.0051303,4.42206935 9.10519424,4.0848138 8.05673871,4.0848138 Z"></path></clipPath></defs><g transform="translate(-2.484102878952399e-08 0.0)"><g transform=""><g clip-path="url(#i0)"><polygon points="-1.56731178e-15,-7.10542736e-15 37.3451589,-7.10542736e-15 37.3451589,37.6639658 -1.56731178e-15,37.6639658 -1.56731178e-15,-7.10542736e-15" stroke="none" fill="#9B9A9B"></polygon></g></g><g transform="translate(81.0916159751605 8.773721372570076) scale(1.0 -1.0)"><g clip-path="url(#i1)"><polygon points="0,0 6.81989985,0 6.81989985,6.52039152 0,6.52039152 0,0" stroke="none" fill="#9B9A9B"></polygon></g></g><g transform="translate(71.57352897516103 3.077879000000392)"><g clip-path="url(#i2)"><polygon points="0,0 5.920669,0 5.920669,27.355123 0,27.355123 0,0" stroke="none" fill="#9B9A9B"></polygon></g></g><g transform="translate(44.36783671165085 30.4332845687497) scale(1.0 -1.0)"><g clip-path="url(#i3)"><polygon points="0,0 24.8073328,0 24.8073328,26.4184689 0,26.4184689 0,0" stroke="none" fill="#9B9A9B"></polygon></g></g><g transform="translate(81.5412639751612 10.347606000000269)"><g clip-path="url(#i4)"><polygon points="0,0 5.920669,0 5.920669,20.085396 0,20.085396 0,0" stroke="none" fill="#9B9A9B"></polygon></g></g><g transform="translate(129.39587463692078 36.8035468619897) scale(1.0 -1.0)"><g clip-path="url(#i5)"><polygon points="0,0 19.973219,0 19.973219,26.4558633 0,26.4558633 0,0" stroke="none" fill="#9B9A9B"></polygon></g></g><g transform="translate(90.49794059476062 36.80342733909976) scale(1.0 -1.0)"><g clip-path="url(#i6)"><polygon points="0,0 19.4115968,0 19.4115968,26.8679077 0,26.8679077 0,0" stroke="none" fill="#9B9A9B"></polygon></g></g><g transform="translate(110.73503000822076 30.84550743905976) scale(1.0 -1.0)"><g clip-path="url(#i7)"><polygon points="0,0 18.2117996,0 18.2117996,20.909844 0,20.909844 0,0" stroke="none" fill="#9B9A9B"></polygon></g></g></g></svg>