<?xml version="1.0" encoding="UTF-8"?><svg version="1.1" width="887px" height="382px" viewBox="0 0 887.0 382.0" xmlns="http://www.w3.org/2000/svg" xmlns:xlink="http://www.w3.org/1999/xlink"><defs><clipPath id="i0"><path d="M817.148,0 C855.085,0 885.826,30.603 885.826,68.347 L885.826,312.592 C885.826,350.315 855.086,380.922 817.148,380.922 L68.678,380.922 C30.757,380.922 0,350.315 0,312.592 L0,68.347 C0,30.603 30.757,0 68.678,0 L817.148,0 Z M463.257,27.977 L71.127,27.977 C47.412,27.977 28.187,47.103 28.187,70.685 L28.187,310.276 C28.187,333.858 47.412,352.984 71.127,352.984 L463.257,352.984 L463.257,27.977 Z M754.383,142.418 L718.74,142.418 L757.516,240.374 C755.122,248.834 748.879,253.621 740.784,253.621 C736.174,253.621 732.147,253.059 727.73,251.597 L725.535,276.773 C732.295451,278.251832 739.195694,278.996001 746.116,278.996001 C776.449,278.996001 783.607,255.646 792.983,231.561 L828.102,142.418 L795.007,142.418 L775.34,204.908 L774.97,204.908 L754.383,142.418 Z M557.771,140.195 C542.71,140.195 528.741,146.268 522.106,159.691 L521.736,159.691 L521.736,142.418 L491.233,142.418 L491.233,276.773 L524.306,276.773 L524.306,224.75 L524.676,224.75 C530.941,236.15 543.448,240.374 555.024,240.374 C583.509,240.374 598.764,216.853 598.764,188.544 C598.764,165.394 584.248,140.195 557.771,140.195 Z M663.238,140.195 C649.092,140.195 636.778,142.219 625.008,147.006 L625.571,169.441 C634.731,164.285 645.414,162.261 656.074,162.261 C668.004,162.261 677.748,165.763 677.947,178.817 C673.722,178.077 667.827,177.515 662.499,177.515 C644.869,177.515 613.063,181.017 613.063,210.235 C613.063,231.015 629.967,240.375 648.899,240.375 C662.499,240.375 671.699,235.063 679.231,223.096 L679.601,223.096 C679.601,228.076 680.141,233.017 680.341,238.174 L710.65,238.174 C709.189,230.646 708.82,223.096 708.82,215.568 L708.82,179.908 C708.82,150.685 687.691,140.195 663.238,140.195 Z M663.977,195.179 C668.935,195.179 673.722,195.527 677.947,195.725 C677.947,206.932 670.044,218.331 657.536,218.331 C649.931985,218.331 644.114574,214.591933 643.940035,208.140673 L643.936,207.842 C643.936,198.659 652.749,195.179 663.977,195.179 Z M544.54,165.569 C557.418,165.569 564.576,176.599 564.576,189.284 C564.577,204.538 557.032,215.022 544.54,215.022 C533.505,215.022 524.306,204.538 524.306,190.569 C524.306,176.23 532.396,165.569 544.54,165.569 Z"></path></clipPath><clipPath id="i1"><path d="M43.192,37.661 C57.333,37.661 68.738,45.387 75.742,57.157 L76.09,57.157 L76.09,39.884 L106.052,39.884 L106.052,124.433 C106.052,163.772 86.949,176.462 48.349,176.462 C32.527,176.462 19.473,173.152 11.769,170.389 L13.423,144.282 C23.521,149.239 31.986,152.179 45.779,152.179 C64.884,152.179 75.174,143.173 75.174,124.433 L75.174,119.277 L74.805,119.277 C66.907,130.483 55.877,135.639 42.625,135.639 C16.363,135.639 0,115.797 0,87.489 C0,59.004 13.423,37.661 43.192,37.661 Z M311.054,37.661 C342.671,37.661 366.754,56.048 366.754,87.858 C366.754,119.476 342.671,137.84 311.054,137.84 C279.442,137.84 255.375,119.476 255.375,87.858 C255.375,56.048 279.442,37.661 311.054,37.661 Z M161.968,39.884 L161.968,135.64 L128.895,135.64 L128.895,39.884 L161.968,39.884 Z M242.883,37.661 C246.733,37.661 250.78,38.23 254.09,38.77 L252.436,66.339 C248.758,65.253 245.101,65.253 241.23,65.253 C225.799,65.253 217.146,76.459 217.146,95.215 L217.146,135.64 L184.068,135.64 L184.068,39.884 L214.205,39.884 L214.205,57.526 L214.575,57.526 C220.278,45.388 228.545,37.661 242.883,37.661 Z M311.054,60.835 C295.8,60.835 289.557,73.519 289.557,87.859 C289.557,102.004 295.8,114.689 311.054,114.689 C326.325,114.688 332.574,102.004 332.574,87.858 C332.574,73.52 326.325,60.835 311.054,60.835 Z M34.1846425,87.3876154 C34.3587888,101.996016 43.11522,110.271 52.938,110.271 C64.69,110.271 74.066,100.35 74.066,85.641 C74.066,74.981 67.823,63.036 52.938,63.036 C40.622,63.036 34.182,73.889 34.182,86.943 Z M161.968,0 L161.968,24.26 L128.878,24.26 L128.878,0 L161.968,0 Z"></path></clipPath></defs><g transform="translate(0.36909364101120445 0.13699999999971624)"><g clip-path="url(#i0)"><polygon points="0,0 885.826,0 885.826,380.922 0,380.922 0,0" stroke="none" fill="#9B9A9B"></polygon></g><g transform="translate(74.80499999999935 102.53400000000056)"><g clip-path="url(#i1)"><polygon points="0,0 366.754,0 366.754,176.462 0,176.462 0,0" stroke="none" fill="#9B9A9B"></polygon></g></g></g></svg>