<?xml version="1.0" encoding="UTF-8"?><svg version="1.1" width="603px" height="183px" viewBox="0 0 603.0 183.0" xmlns="http://www.w3.org/2000/svg" xmlns:xlink="http://www.w3.org/1999/xlink"><defs><clipPath id="i0"><path d="M5.00440777,0.682938239 C50.0187178,26.8735782 105.677098,42.6299082 163.170638,42.6299082 C201.945327,42.6299082 244.600138,34.6075382 283.820538,17.9598482 C289.745548,15.4430182 294.700528,21.8399382 288.906608,26.1394982 C253.907128,51.9368882 203.177518,65.7007282 159.500268,65.7007282 C98.2577178,65.7007282 43.1237078,43.0493782 1.41269777,5.37576824 C-1.86440223,2.41324824 1.07186777,-1.62413176 5.00440777,0.682938239 Z"></path></clipPath><clipPath id="i1"><path d="M58.6976525,4.40880231 C62.5252925,9.15406231 57.7014125,42.0562123 38.9039225,57.7600823 C36.0200725,60.1720323 33.2673025,58.8874223 34.5519425,55.6889523 C35.9026305,52.3164179 37.7902416,47.6042662 39.5859331,42.5670627 L39.9213945,41.6190255 C43.5962437,31.1541648 46.7128853,19.5763057 43.7540525,15.7869223 C39.2971725,10.0716523 14.1814425,13.0865923 2.9082025,14.4236523 C-0.5262175,14.8431223 -1.0505375,11.8544023 2.0430325,9.70460231 C22.0464925,-4.37383769 54.8699925,-0.310227685 58.6976525,4.40880231 Z"></path></clipPath><clipPath id="i2"><path d="M68.21621,0 C70.18249,0 71.7555,1.41571 71.7555,3.46062 L71.7555,15.17955 C71.7293,17.14581 70.07762,19.71506 67.14132,23.77867 L35.39273,69.1076 C47.19032,68.81923 59.64332,70.57574 70.33979,76.60562 C72.75174,77.96889 73.40716,79.96137 73.59068,81.92765 L73.59068,96.53043 C73.59068,98.52291 71.38846,100.85619 69.08138,99.65023 C50.23146,89.76647 25.19438,88.69158 4.35199,99.7551 C2.22843,100.90864 0,98.60156 0,96.60908 L0.000911504817,82.2899536 C0.0125470552,80.0231751 0.169969677,76.4922884 2.25463,73.32851 L39.03687,20.58022 L7.02611,20.58022 C5.05985,20.58022 3.48684,19.19074 3.48684,17.14581 L3.48684,3.46062 C3.48684,1.38949 5.05985,0 6.94746,0 L68.21621,0 Z"></path></clipPath><clipPath id="i3"><path d="M99.17833,0 C106.99095,0 115.53764,3.22467 120.75479,10.46052 C126.65358,18.50909 125.4476,30.2018 125.4476,40.4526 L125.4214,100.82999 C125.4214,102.74382 123.82217,104.2906 121.82969,104.2906 L103.21572,104.2906 C101.35434,104.15953 99.85998,102.66517 99.85998,100.82999 L99.85998,50.12661 C99.85998,46.08922 100.227,36.02195 99.33564,32.19428 C97.94615,25.77117 93.77767,23.96219 88.37699,23.96219 C83.86769,23.96219 79.14866,26.97713 77.23483,31.80104 C75.3808072,36.4741931 75.4950982,44.1982116 75.504052,49.6102607 L75.50452,100.82999 C75.50452,102.74382 73.90529,104.2906 71.91281,104.2906 L53.29886,104.2906 C51.41125,104.15953 49.9431,102.66517 49.9431,100.82999 L49.91688,50.12661 C49.91688,39.45636 51.67339,23.75246 38.4339,23.75246 C27.046603,23.75246 25.7173441,34.8143902 25.5747806,44.9273534 L25.5665727,45.6394771 C25.5611827,46.2313392 25.5591766,46.8189398 25.5587488,47.3998343 L25.5588774,48.0935321 C25.5594232,48.6686704 25.560825,49.2361245 25.5612771,49.7934498 L25.56142,100.82999 C25.56142,102.74382 23.96219,104.2906 21.96971,104.2906 L3.32954,104.2906 C1.54681,104.15953 0.13109,102.82247 0,101.11836 L0,5.45312 C0,3.53929 1.59923,2.0187 3.59171,2.0187 L20.97347,2.0187 C22.78245,2.0973 24.22436,3.48684 24.35546,5.21715 L24.35546,17.7226 L24.69628,17.7226 C29.23179,5.63662 37.75225,0 49.23524,0 C60.90173,0 68.19001,5.63662 73.43338,17.7226 C77.94268,5.63662 88.19346,0 99.17833,0 Z"></path></clipPath><clipPath id="i4"><path d="M41.94697,0 C69.60574,0 84.57555,23.75246 84.57555,53.95427 C84.57555,83.13361 68.03271,106.28308 41.94697,106.28308 C14.78631,106.28308 0,82.53062 0,52.93181 C0,23.14947 14.96983,0 41.94697,0 Z M42.10426,19.53156 C28.5040261,19.53156 27.5199629,37.8778657 27.5016417,49.5647948 L27.501869,51.7655014 C27.5200601,64.0430369 28.0494105,86.56802 41.94697,86.56802 C56.39245,86.56802 57.07409,66.4335 57.07409,54.16399 C57.07409,46.08922 56.73327,36.44142 54.29509,28.78609 C52.19774,22.12703 48.02928,19.53156 42.10426,19.53156 Z"></path></clipPath><clipPath id="i5"><path d="M49.94308,0 C58.30625,0 66.4597,3.01494 71.70307,11.27324 C76.4020789,18.6501847 76.572952,30.8717584 76.5791655,40.0320575 L76.5794,101.27568 C76.36967,102.95354 74.82287,104.2906 72.98771,104.2906 L54.29509,104.2906 C52.59098,104.15953 51.17527,102.90112 50.99177,101.27568 L50.99177,49.31389 C50.99177,47.744812 51.0189043,46.0666061 51.0215881,44.3473149 L51.0212352,43.6575684 C51.0202845,43.3117609 51.0180807,42.9646729 51.014211,42.6168486 L51.0041283,41.9203799 C50.8409998,32.8577195 49.3657944,23.54272 39.32526,23.54272 C34.78976,23.54272 30.62127,26.58389 28.55014,31.19804 C25.92847,37.04441 25.58765,42.86455 25.58765,49.31389 L25.58765,100.82999 C25.56145,102.74382 23.93599,104.2906 21.94351,104.2906 L3.38197,104.2906 C1.52056,104.15953 0.0262,102.66517 0.0262,100.82999 L0,5.1385 C0.1573,3.38197 1.7041,2.0187 3.59171,2.0187 L20.86862,2.0187 C22.49405,2.0973 23.83111,3.19846 24.19816,4.69282 L24.19816,19.32181 L24.53896,19.32181 C29.75613,6.23961 37.07061,0 49.94308,0 Z"></path></clipPath><clipPath id="i6"><path d="M44.80459,0 C53.875601,0 65.725611,2.41195 72.882811,9.28076 C80.3815374,16.2810064 81.0900787,25.2161823 81.1104113,35.0495532 L81.1104354,36.0039388 C81.1072918,37.7586588 81.088681,39.5405992 81.088681,41.34397 L81.088681,70.39223 C81.088681,79.12245 84.706621,82.95009 88.114811,87.66914 C89.320781,89.347 89.582951,91.3657 88.062371,92.62411 C84.260931,95.79636 77.496991,101.69515 73.774181,104.99847 L73.721761,104.94597 C72.489571,106.04713 70.706811,106.12578 69.317321,105.39172 C63.130161,100.25322 62.029041,97.86749 58.620851,92.96494 C48.39628,103.39924 41.16045,106.51903 27.89471,106.51903 C12.21703,106.51903 0,96.84502 0,77.47079 C0,62.34366 8.20587,52.04044 19.87236,47.00681 C29.99206,42.54993 44.12294,41.76344 54.924291,40.53125 L54.924291,38.1193 C54.924291,33.68864 55.265111,28.44527 52.669641,24.61763 C50.38876,21.18321 46.03678,19.7675 42.20911,19.7675 C35.10436,19.7675 28.75987,23.41164 27.21308,30.96209 C26.89847,32.63998 25.66628,34.29164 23.98841,34.37029 L5.89879,32.43023 C4.37821,32.08943 2.70033,30.85722 3.1198,28.52394 C7.28828,6.60666 27.08199,0 44.80459,0 Z M54.924291,55.47485 C41.44882,55.47485 27.21308,58.3587 27.21308,74.2461 C27.21308,82.29467 31.38155,87.74779 38.53875,87.74779 C43.78212,87.74779 48.47493,84.52312 51.43745,79.27974 C54.6708456,73.5981698 54.9133635,68.2217996 54.9252811,62.0572568 L54.9251033,60.5416459 C54.9249052,60.371388 54.9247021,60.2004897 54.9245486,60.0289292 L54.924291,55.47485 Z"></path></clipPath><clipPath id="i7"><path d="M44.80459,0 C53.875601,0 65.725611,2.41195 72.882811,9.28076 C80.3815374,16.2810064 81.0900787,25.2161823 81.1104113,35.0495532 L81.1104354,36.0039388 C81.1072918,37.7586588 81.088681,39.5405992 81.088681,41.34397 L81.088681,70.39223 C81.088681,79.12245 84.706621,82.95009 88.114811,87.66914 C89.320781,89.347 89.582951,91.3657 88.062371,92.62411 C84.260931,95.79636 77.496991,101.69515 73.774181,104.99847 L73.721761,104.94597 C72.489571,106.04713 70.706811,106.12578 69.317321,105.39172 C63.130161,100.25322 62.029041,97.86749 58.620851,92.96494 C48.39628,103.39924 41.16045,106.51903 27.89471,106.51903 C12.21703,106.51903 0,96.84502 0,77.47079 C0,62.34366 8.20587,52.04044 19.87236,47.00681 C29.99206,42.54993 44.12294,41.76344 54.924291,40.53125 L54.924291,38.1193 C54.924291,33.68864 55.265111,28.44527 52.669641,24.61763 C50.38876,21.18321 46.03678,19.7675 42.20911,19.7675 C35.10436,19.7675 28.75987,23.41164 27.21308,30.96209 C26.89847,32.63998 25.66628,34.29164 23.98841,34.37029 L5.89879,32.43023 C4.37821,32.08943 2.70033,30.85722 3.1198,28.52394 C7.28828,6.60666 27.08199,0 44.80459,0 Z M54.924291,55.47485 C41.44882,55.47485 27.21308,58.3587 27.21308,74.2461 C27.21308,82.29467 31.38155,87.74779 38.53875,87.74779 C43.78212,87.74779 48.47493,84.52312 51.43745,79.27974 C54.6708456,73.5981698 54.9133635,68.2217996 54.9252811,62.0572568 L54.9251033,60.5416459 C54.9249052,60.371388 54.9247021,60.2004897 54.9245486,60.0289292 L54.924291,55.47485 Z"></path></clipPath></defs><g transform="translate(0.36909364100938546 0.6377800000000207)"><g transform="translate(84.73584223481794 115.79849176076823)"><g clip-path="url(#i0)"><polygon points="-8.8817842e-16,1.77635684e-15 291.487836,1.77635684e-15 291.487836,65.7007282 -8.8817842e-16,65.7007282 -8.8817842e-16,1.77635684e-15" stroke="none" fill="#9B9A9B"></polygon></g></g><g transform="translate(344.43875750046755 109.50337768525968)"><g clip-path="url(#i1)"><polygon points="-1.99840144e-14,5.32907052e-15 59.915309,5.32907052e-15 59.915309,59.0110237 -1.99840144e-14,59.0110237 -1.99840144e-14,5.32907052e-15" stroke="none" fill="#9B9A9B"></polygon></g></g><g transform="translate(344.6466300000011 2.6741200000005847)"><g clip-path="url(#i2)"><polygon points="0,0 73.59068,0 73.59068,100.0639 0,100.0639 0,0" stroke="none" fill="#9B9A9B"></polygon></g></g><g transform="translate(102.66515000000163 0.9175900000000183)"><g clip-path="url(#i3)"><polygon points="0,0 125.549178,0 125.549178,104.2906 0,104.2906 0,0" stroke="none" fill="#9B9A9B"></polygon></g></g><g transform="translate(427.2034500000009 0.9175900000000183)"><g clip-path="url(#i4)"><polygon points="0,0 84.57555,0 84.57555,106.28308 0,106.28308 0,0" stroke="none" fill="#9B9A9B"></polygon></g></g><g transform="translate(525.7001600000003 0.9175900000000183)"><g clip-path="url(#i5)"><polygon points="0,0 76.5794,0 76.5794,104.2906 0,104.2906 0,0" stroke="none" fill="#9B9A9B"></polygon></g></g><g transform="translate(244.36719000000087 0.0)"><g clip-path="url(#i6)"><polygon points="0,0 89.1125538,0 89.1125538,106.51903 0,106.51903 0,0" stroke="none" fill="#9B9A9B"></polygon></g></g><g transform=""><g clip-path="url(#i7)"><polygon points="0,0 89.1125538,0 89.1125538,106.51903 0,106.51903 0,0" stroke="none" fill="#9B9A9B"></polygon></g></g></g></svg>