<?xml version="1.0" encoding="UTF-8"?><svg version="1.1" width="360px" height="126px" viewBox="0 0 360.0 126.0" xmlns="http://www.w3.org/2000/svg" xmlns:xlink="http://www.w3.org/1999/xlink"><defs><clipPath id="i0"><path d="M0.159498709,2.47910064 C0.0835201926,2.21620397 -1.07060998,-2.00665994 4.16323617,1.1918016 C4.16323617,1.1918016 4.21698617,1.2373016 4.31779867,1.3276891 L4.46093567,1.4576609 C7.01643617,3.8049716 24.9282362,21.5968016 15.1632362,50.8918016 C15.1632362,50.8918016 12.4632362,58.6918016 9.26323617,50.8918016 C9.26323617,50.8918016 6.72631617,39.6943616 4.32936417,27.8180768 L4.06374817,26.4962304 C2.12211617,16.7900416 0.339236169,6.8918016 0.163236169,2.4918016 Z"></path></clipPath><clipPath id="i1"><path d="M132.599159,4.72006648 L132.611507,4.72872088 C132.644099,4.75165848 132.739859,4.81962648 132.882659,4.92586648 L132.998327,5.01261688 C133.597583,5.46557368 134.761991,6.39924608 135.723297,7.49169928 L135.919038,7.71988408 C137.746259,9.90715648 138.584159,12.6220665 132.599159,13.4200665 C132.599159,13.4200665 93.3991587,18.0200665 64.1991587,45.3200665 C64.1991587,45.3200665 20.3991587,83.6200665 3.9991587,125.620066 C3.9991587,125.620066 -1.5008413,125.620066 0.399158704,117.420066 C2.1991587,109.220066 13.1991587,73.1200665 61.9991587,28.9200665 C61.8991587,28.9200665 108.899159,-13.9799335 132.599159,4.72006648 Z"></path></clipPath><clipPath id="i2"><path d="M26.3,0 C32.1,0 38.1,1.2 42.1,4.4 C45.7,7.1 47.8,11.2 47.8,16.6 C47.8,23.9 44.3,29.8 39.9,33.3 C35,37.2 27.9,39.1 20.6,39.1 C18.4,39.1 16.5,38.8 14.8,38.6 L10.3,61.9 L0,61.9 L11.5,1.5 C15.2,0.6 20.8,0 26.3,0 Z M26.4,8.5 C23.7,8.5 21.7,8.7 20.5,9 L16.5,30 C18.2,30.4 19.8,30.5 22.1,30.5 C31,30.5 37.1,24.7 37.1,17.4 C37.1,10.8 32.4,8.5 26.4,8.5 Z"></path></clipPath><clipPath id="i3"><path d="M31.3,0 C36.1,0 41.3,0.9 44.8,2 L40.1,25.2 C38.8,31.8 38.1,40.2 38.3,45.5 L28.7,45.5 C28.7,42.8 29.1,39.3 29.4,35.5 L29.2,35.5 C24.8,43.6 18.9,46.5 13.2,46.5 C5.3,46.5 0,40.3 0,31.3 C0,16.1 10.6,0 31.3,0 Z M28.6,8.2 C18.8,8.2 11.1,19.3 11.1,29.4 C11.1,34.1 12.8,37.9 17.5,37.9 C22.5,37.9 28.6,31.7 30.7,20.4 L33,8.7 C31.9,8.4 30.5,8.2 28.6,8.2 Z"></path></clipPath><clipPath id="i4"><path d="M25.7,0 C37.7,0 43.9,8.6 43.9,18.4 C43.9,33.6 33.4,46.5 18.2,46.5 C7,46.5 0,38.7 0,28.1 C0,13 10.5,0 25.7,0 Z M24.4,8.3 C16,8.2 11,19.6 11,27.9 C11,34 14.2,38.3 19.7,38.3 C27.6,38.3 32.9,27.3 32.9,18.5 C32.9,13.9 30.8,8.3 24.4,8.3 Z"></path></clipPath><clipPath id="i5"><path d="M0.019,45.5 L5.8,14.9 C6.9,9.6 7.5,4.9 8.1,1.1 L17.6,1.1 L16.6,9 L16.8,9 C20.9,3.1 26.6,0 32.8,0 C39.2,0 44.1,3.8 44.1,12.2 C44.1,14.2 43.7,17.3 43.3,19.5 L38.4,45.4 L27.7,45.4 L32.4,20.3 C32.7,18.7 33,16.7 33,15 C33,11.3 31.6,8.6 27.4,8.6 C22.6,8.6 16.3,14.4 14.4,24.9 L10.6,45.5 L0.019,45.5 Z"></path></clipPath><clipPath id="i6"><path d="M25.2,0 C34,0 39.5,5 39.5,12.5 C39.5,23.9 27.5,27.6 10.4,27.2 C10.2,28.8 10.6,31.8 11.6,33.5 C13.3,36.5 16.5,38.1 20.7,38.1 C25.7,38.1 29.7,36.8 32.9,35.2 L34,42.9 C29.6,45.2 23.7,46.5 18.3,46.5 C6,46.5 0,38.9 0,28 C0,14.6 9.9,0 25.2,0 Z M23.9,7.9 C17.2,7.9 12.8,13.8 11.6,19.2 C22.6,19.3 29.6,17.8 29.6,12.4 C29.5,9.6 27.3,7.9 23.9,7.9 Z"></path></clipPath><clipPath id="i7"><path d="M25.2,0 C34,0 39.6,5 39.6,12.5 C39.6,23.9 27.6,27.6 10.5,27.2 C10.3,28.8 10.7,31.8 11.7,33.5 C13.4,36.5 16.6,38.1 20.8,38.1 C25.8,38.1 29.8,36.8 33,35.2 L34,42.9 C29.6,45.2 23.7,46.5 18.3,46.5 C6,46.5 0,38.9 0,28 C0,14.6 9.9,0 25.2,0 Z M23.9,7.9 C17.2,7.9 12.8,13.8 11.6,19.2 C22.6,19.3 29.6,17.8 29.6,12.4 C29.5,9.6 27.2,7.9 23.9,7.9 Z"></path></clipPath><clipPath id="i8"><path d="M29.9,0 C30.7,0 31.5,0.1 32.3,0.1 L30.2,10.5 C29.7,10.4 28.9,10.4 28.2,10.4 C20.6,10.4 15.8,18.1 14,27.6 L10.6,45.5 L0,45.5 L5.2,18.1 C6.4,11.8 7,4.9 7.5,1 L16.7,1 C16.4,4 16.2,7.1 15.7,10.3 L16,10.3 C19,4.4 23.9,0 29.9,0 Z"></path></clipPath><clipPath id="i9"><path d="M1.5,0 C2.3,0 2.8,0.2 3.2,0.5 C3.5,0.8 3.7,1.2 3.7,1.6 C3.7,2.34285714 3.26887755,2.82704082 2.72689504,3.05255102 L2.6,3.1 C3.1,3.3 3.3,3.7 3.5,4.3 C3.7,5.1 3.8,5.7 4,5.9 L3,5.9 C2.9,5.7 2.8,5.2 2.6,4.5 C2.4,3.7 2.1,3.4 1.4,3.4 L0.7,3.4 L0.7,6 L0,6 L0,0.1 C0.4,0 0.9,0 1.5,0 Z M1.5,0.6 C1.1,0.6 0.9,0.6 0.7,0.7 L0.7,2.8 L1.6,2.8 C2.4,2.8 2.9,2.4 2.9,1.7 C2.9,0.9 2.3,0.6 1.5,0.6 Z"></path></clipPath><clipPath id="i10"><path d="M5.3,0 C8.2,0 10.6,2.4 10.6,5.3 C10.6,8.2 8.2,10.6 5.3,10.6 C2.4,10.6 0,8.2 0,5.3 C0,2.4 2.4,0 5.3,0 Z M5.3,0.8 C2.9,0.8 0.9,2.8 0.8,5.3 C0.8,7.8 2.8,9.8 5.3,9.8 C7.7,9.8 9.7,7.8 9.7,5.3 C9.7,2.8 7.8,0.8 5.3,0.8 Z"></path></clipPath></defs><g transform="translate(-2.4840119294822216e-08 0.1799335180057824)"><g transform="translate(91.43676383105321 7.728264881994619)"><g clip-path="url(#i0)"><polygon points="0,0 18.0521348,0 18.0521348,54.3584683 0,54.3584683 0,0" stroke="none" fill="#9B9A9B"></polygon></g></g><g transform="translate(83.50084129559582 0.0)"><g clip-path="url(#i1)"><polygon points="8.8817842e-16,-7.10542736e-15 137.265825,-7.10542736e-15 137.265825,125.620066 8.8817842e-16,125.620066 8.8817842e-16,-7.10542736e-15" stroke="none" fill="#9B9A9B"></polygon></g></g><g transform="translate(0.0 35.520066481994945)"><g clip-path="url(#i2)"><polygon points="0,0 47.8,0 47.8,61.9 0,61.9 0,0" stroke="none" fill="#9B9A9B"></polygon></g></g><g transform="translate(43.0 52.020066481994036)"><g clip-path="url(#i3)"><polygon points="0,0 44.8,0 44.8,46.5 0,46.5 0,0" stroke="none" fill="#9B9A9B"></polygon></g></g><g transform="translate(137.40000000000055 52.020066481994036)"><g clip-path="url(#i4)"><polygon points="0,0 43.9,0 43.9,46.5 0,46.5 0,0" stroke="none" fill="#9B9A9B"></polygon></g></g><g transform="translate(183.30000000000018 51.92006648199458)"><g clip-path="url(#i5)"><polygon points="0,0 44.1,0 44.1,45.6 0,45.6 0,0" stroke="none" fill="#9B9A9B"></polygon></g></g><g transform="translate(231.80000000000018 52.1200664819944)"><g clip-path="url(#i6)"><polygon points="0,0 39.5,0 39.5,46.5 0,46.5 0,0" stroke="none" fill="#9B9A9B"></polygon></g></g><g transform="translate(273.1999999999998 52.1200664819944)"><g clip-path="url(#i7)"><polygon points="0,0 39.6,0 39.6,46.5 0,46.5 0,0" stroke="none" fill="#9B9A9B"></polygon></g></g><g transform="translate(313.40000000000055 52.020066481994036)"><g clip-path="url(#i8)"><polygon points="0,0 32.3,0 32.3,45.5 0,45.5 0,0" stroke="none" fill="#9B9A9B"></polygon></g></g><g transform="translate(353.0 54.32006648199422)"><g clip-path="url(#i9)"><polygon points="0,0 4,0 4,6 0,6 0,0" stroke="none" fill="#9B9A9B"></polygon></g></g><g transform="translate(349.39999999999964 52.020066481994036)"><g clip-path="url(#i10)"><polygon points="0,0 10.6,0 10.6,10.6 0,10.6 0,0" stroke="none" fill="#9B9A9B"></polygon></g></g></g></svg>