<?xml version="1.0" encoding="UTF-8"?><svg version="1.1" width="409px" height="732px" viewBox="0 0 409.0 732.0" xmlns="http://www.w3.org/2000/svg" xmlns:xlink="http://www.w3.org/1999/xlink"><defs><clipPath id="i0"><path d="M409,0 L409,732 L0,732 L0,0 L409,0 Z"></path></clipPath><clipPath id="i1"><path d="M229.298432,2.86808224 C248.798432,5.56808224 254.698432,15.6680822 248.598432,35.8680822 C244.498432,49.3680822 243.798432,53.6680822 243.798432,64.7680822 C243.898432,93.9680822 255.098432,111.268082 298.398432,148.568082 C342.198432,186.268082 358.198432,202.468082 374.198432,225.768082 C392.398432,252.368082 403.298432,280.068082 407.398432,310.768082 C409.298432,324.868082 409.298432,357.468082 407.398432,372.068082 C397.698432,446.468082 349.098432,498.768082 270.798432,519.168082 C256.398432,522.968082 239.398432,525.968082 223.598432,527.768082 C216.429827,528.50064 203.155557,529.014161 190.036332,529.194032 L188.288571,529.216028 C176.941239,529.346016 165.919362,529.221571 159.298432,528.768082 C120.198432,526.068082 82.1984316,517.368082 48.9984316,503.768082 C24.9984316,493.868082 10.9984316,485.668082 5.99843159,478.468082 C0.976431588,471.178082 0.0222515884,469.464932 0.000389688373,429.803614 L0.000428288373,426.795677 C0.00510158837,418.072822 0.0474315884,407.631082 0.0984315884,395.068082 L0.398431588,328.268082 L2.99843159,322.668082 C6.69843159,314.768082 10.5984316,312.268082 18.8984316,312.268082 C26.7984316,312.368082 28.6984316,313.268082 43.3984316,324.268082 C72.5984316,346.068082 101.198432,359.268082 133.898432,366.268082 C150.798432,369.868082 170.198432,370.668082 181.898432,368.368082 C209.298432,362.868082 224.198432,344.968082 223.998432,317.968082 C223.898432,288.068082 209.998432,267.568082 159.898432,223.668082 C129.798432,197.268082 113.398432,177.768082 101.898432,154.768082 C84.9984316,120.868082 80.3984316,77.1680822 89.3984316,36.4680822 C93.2984316,18.8680822 98.3984316,10.0680822 107.298432,5.86808224 C111.998432,3.56808224 122.898432,2.36808224 146.898432,1.36808224 C154.298432,1.06808224 165.198432,0.468082245 171.098432,0.168082245 C172.775355,0.0603899368 175.013224,0.00713549894 177.645996,0.000672139817 L178.798021,0.000744594835 C193.488445,0.0369024353 218.831399,1.38456576 229.298432,2.86808224 Z"></path></clipPath><clipPath id="i2"><path d="M128.765087,1.78191393 C180.565087,12.7819139 212.865087,54.9819139 207.665087,104.881914 C203.465087,145.881914 175.065087,176.081914 127.865087,189.381914 C118.565087,192.081914 100.265087,193.281914 91.7650874,191.881914 C74.4650874,188.981914 50.1650874,178.581914 36.9650874,168.381914 C10.1650874,147.781914 -3.23491262,116.881914 0.665087379,84.7819139 C5.96508738,41.8819139 39.4650874,8.78191393 85.3650874,1.18191393 C96.3650874,-0.618086073 119.065087,-0.318086073 128.765087,1.78191393 Z"></path></clipPath></defs><g clip-path="url(#i0)"><g transform="translate(0.10156841162645946 -0.4965745387822267)"><g transform="translate(1.7053025658242404e-13 732.2784884657736) scale(1.0 -1.0)"><g transform="translate(0.0 203.01383168248617)"><g clip-path="url(#i1)"><path d="M159.298432,528.768082 C120.198432,526.068082 82.1984316,517.368082 48.9984316,503.768082 C24.9984316,493.868082 10.9984316,485.668082 5.99843159,478.468082 C-0.201568412,469.468082 -0.201568412,468.968082 0.0984315884,395.068082 L0.398431588,328.268082 L2.99843159,322.668082 C6.69843159,314.768082 10.5984316,312.268082 18.8984316,312.268082 C26.7984316,312.368082 28.6984316,313.268082 43.3984316,324.268082 C72.5984316,346.068082 101.198432,359.268082 133.898432,366.268082 C150.798432,369.868082 170.198432,370.668082 181.898432,368.368082 C209.298432,362.868082 224.198432,344.968082 223.998432,317.968082 C223.898432,288.068082 209.998432,267.568082 159.898432,223.668082 C129.798432,197.268082 113.398432,177.768082 101.898432,154.768082 C84.9984316,120.868082 80.3984316,77.1680822 89.3984316,36.4680822 C93.2984316,18.8680822 98.3984316,10.0680822 107.298432,5.86808224 C111.998432,3.56808224 122.898432,2.36808224 146.898432,1.36808224 C154.298432,1.06808224 165.198432,0.468082245 171.098432,0.168082245 C181.998432,-0.531917755 216.598432,1.06808224 229.298432,2.86808224 C248.798432,5.56808224 254.698432,15.6680822 248.598432,35.8680822 C244.498432,49.3680822 243.798432,53.6680822 243.798432,64.7680822 C243.898432,93.9680822 255.098432,111.268082 298.398432,148.568082 C342.198432,186.268082 358.198432,202.468082 374.198432,225.768082 C392.398432,252.368082 403.298432,280.068082 407.398432,310.768082 C409.298432,324.868082 409.298432,357.468082 407.398432,372.068082 C397.698432,446.468082 349.098432,498.768082 270.798432,519.168082 C256.398432,522.968082 239.398432,525.968082 223.598432,527.768082 C209.898432,529.168082 173.898432,529.768082 159.298432,528.768082 Z" stroke="#496FFF" stroke-width="24" fill="none" stroke-miterlimit="5" stroke-dasharray=" 50.0 50.0"></path></g></g><g transform="translate(76.13334420943227 -1.1368683772161603e-13)"><g clip-path="url(#i2)"><path d="M91.7650874,191.881914 C74.4650874,188.981914 50.1650874,178.581914 36.9650874,168.381914 C10.1650874,147.781914 -3.23491262,116.881914 0.665087379,84.7819139 C5.96508738,41.8819139 39.4650874,8.78191393 85.3650874,1.18191393 C96.3650874,-0.618086073 119.065087,-0.318086073 128.765087,1.78191393 C180.565087,12.7819139 212.865087,54.9819139 207.665087,104.881914 C203.465087,145.881914 175.065087,176.081914 127.865087,189.381914 C118.565087,192.081914 100.265087,193.281914 91.7650874,191.881914 Z" stroke="#496FFF" stroke-width="24" fill="none" stroke-miterlimit="5" stroke-dasharray=" 50.0 50.0"></path></g></g></g></g></g></svg>