<?xml version="1.0" encoding="UTF-8"?><svg version="1.1" width="628px" height="381px" viewBox="0 0 628.0 381.0" xmlns="http://www.w3.org/2000/svg" xmlns:xlink="http://www.w3.org/1999/xlink"><defs><clipPath id="i0"><path d="M1280,0 L1280,3068 L0,3068 L0,0 L1280,0 Z"></path></clipPath><clipPath id="i1"><path d="M500.519152,0 C565.959795,0 610.359214,54.9346568 624.178184,125.643269 C637.997154,196.351881 605.315366,183.97288 605.315366,234.111503 C605.315366,299.80655 611.082162,365.600087 570.305728,376.111651 C529.529295,386.623215 385.120713,365.600087 357.196445,365.600087 C329.272177,365.600087 137.708942,380.028982 97.3156863,380.028982 C56.9224308,380.028982 24.2632124,357.97288 17.0318445,331.436778 C13.4161605,318.168728 14.6437444,305.873585 16.1614574,293.423275 L16.3797555,291.643482 C17.8416791,279.769534 19.3700996,267.70612 17.0318445,254.478766 C-18.5729992,53.0645196 6.81260972,50.9269924 45.7660649,16.1163499 C84.7195201,-18.6942927 257.528412,16.1163499 304.271715,16.1163499 C351.015017,16.1163499 435.07851,0 500.519152,0 Z"></path></clipPath></defs><g transform="translate(-486.0 -1632.0)"><g clip-path="url(#i0)"><g transform="translate(486.3729725950797 1632.527119803944)"><g clip-path="url(#i1)"><polygon points="0,0 627.585278,0 627.585278,380.028982 0,380.028982 0,0" stroke="none" fill="#E8EFFF"></polygon></g></g></g></g></svg>